<svg xmlns="http://www.w3.org/2000/svg" width="300" height="160" viewBox="0 0 300 160">
  <rect width="300" height="160" fill="#fef3c7" rx="20"/>
  <!-- Star 1 -->
  <polygon points="45,20 52,40 72,40 57,52 62,72 45,60 28,72 33,52 18,40 38,40" fill="#f59e0b"/>
  <!-- Star 2 -->
  <polygon points="115,20 122,40 142,40 127,52 132,72 115,60 98,72 103,52 88,40 108,40" fill="#f59e0b"/>
  <!-- Star 3 -->
  <polygon points="185,20 192,40 212,40 197,52 202,72 185,60 168,72 173,52 158,40 178,40" fill="#f59e0b"/>
  <!-- Star 4 -->
  <polygon points="255,20 262,40 282,40 267,52 272,72 255,60 238,72 243,52 228,40 248,40" fill="#f59e0b"/>
</svg>
